<svg width="636" height="636" viewBox="0 0 636 636" fill="none" xmlns="http://www.w3.org/2000/svg">
<g filter="url(#filter0_f_77_2608)">
<ellipse cx="317.99" cy="317.99" rx="197.617" ry="197.617" transform="rotate(-13.3825 317.99 317.99)" fill="#B968A4"/>
<ellipse cx="317.99" cy="317.99" rx="197.617" ry="197.617" transform="rotate(-13.3825 317.99 317.99)" fill="url(#paint0_linear_77_2608)"/>
<ellipse cx="317.99" cy="317.99" rx="197.617" ry="197.617" transform="rotate(-13.3825 317.99 317.99)" fill="url(#paint1_linear_77_2608)"/>
</g>
<g filter="url(#filter1_f_77_2608)">
<ellipse cx="317.99" cy="317.99" rx="197.617" ry="197.617" transform="rotate(-13.3825 317.99 317.99)" fill="#B968A4"/>
<ellipse cx="317.99" cy="317.99" rx="197.617" ry="197.617" transform="rotate(-13.3825 317.99 317.99)" fill="url(#paint2_linear_77_2608)"/>
<ellipse cx="317.99" cy="317.99" rx="197.617" ry="197.617" transform="rotate(-13.3825 317.99 317.99)" fill="url(#paint3_linear_77_2608)"/>
</g>
<ellipse cx="317.989" cy="317.99" rx="197.617" ry="197.617" transform="rotate(-13.3825 317.989 317.99)" fill="#B968A4"/>
<ellipse cx="317.989" cy="317.99" rx="197.617" ry="197.617" transform="rotate(-13.3825 317.989 317.99)" fill="url(#paint4_linear_77_2608)"/>
<ellipse cx="317.989" cy="317.99" rx="197.617" ry="197.617" transform="rotate(-13.3825 317.989 317.99)" fill="url(#paint5_linear_77_2608)"/>
<g opacity="0.3" filter="url(#filter2_f_77_2608)">
<path d="M291.271 158.994C354.391 107.477 478.23 181.167 473.61 241.778L403.77 191.899C395.617 186.076 386.418 181.878 376.677 179.535L291.271 158.994Z" fill="#FFD2BB"/>
</g>
<g style="mix-blend-mode:multiply" opacity="0.4" filter="url(#filter3_f_77_2608)">
<path d="M393.606 477.741C293.575 547.562 145.01 456.742 147.962 345.745L242.388 433.575C252.616 443.089 265.211 449.682 278.858 452.664L393.606 477.741Z" fill="#B968A4"/>
</g>
<defs>
<filter id="filter0_f_77_2608" x="0.328125" y="0.327637" width="635.323" height="635.324" filterUnits="userSpaceOnUse" color-interpolation-filters="sRGB">
<feFlood flood-opacity="0" result="BackgroundImageFix"/>
<feBlend mode="normal" in="SourceGraphic" in2="BackgroundImageFix" result="shape"/>
<feGaussianBlur stdDeviation="60" result="effect1_foregroundBlur_77_2608"/>
</filter>
<filter id="filter1_f_77_2608" x="0.328125" y="0.327637" width="635.323" height="635.324" filterUnits="userSpaceOnUse" color-interpolation-filters="sRGB">
<feFlood flood-opacity="0" result="BackgroundImageFix"/>
<feBlend mode="normal" in="SourceGraphic" in2="BackgroundImageFix" result="shape"/>
<feGaussianBlur stdDeviation="60" result="effect1_foregroundBlur_77_2608"/>
</filter>
<filter id="filter2_f_77_2608" x="261.271" y="111.623" width="242.465" height="160.155" filterUnits="userSpaceOnUse" color-interpolation-filters="sRGB">
<feFlood flood-opacity="0" result="BackgroundImageFix"/>
<feBlend mode="normal" in="SourceGraphic" in2="BackgroundImageFix" result="shape"/>
<feGaussianBlur stdDeviation="15" result="effect1_foregroundBlur_77_2608"/>
</filter>
<filter id="filter3_f_77_2608" x="97.9187" y="295.745" width="345.687" height="256.454" filterUnits="userSpaceOnUse" color-interpolation-filters="sRGB">
<feFlood flood-opacity="0" result="BackgroundImageFix"/>
<feBlend mode="normal" in="SourceGraphic" in2="BackgroundImageFix" result="shape"/>
<feGaussianBlur stdDeviation="25" result="effect1_foregroundBlur_77_2608"/>
</filter>
<linearGradient id="paint0_linear_77_2608" x1="128.092" y1="493.992" x2="515.607" y2="227.673" gradientUnits="userSpaceOnUse">
<stop offset="0.140215" stop-color="#5343A5"/>
<stop offset="0.460927" stop-color="#5343A5" stop-opacity="0.05"/>
<stop offset="0.587747" stop-color="#5343A5" stop-opacity="0"/>
</linearGradient>
<linearGradient id="paint1_linear_77_2608" x1="668.451" y1="50.8978" x2="252.374" y2="432.236" gradientUnits="userSpaceOnUse">
<stop offset="0.300261" stop-color="#FCB8A8"/>
<stop offset="0.833024" stop-color="#FCB8A8" stop-opacity="0.12"/>
<stop offset="1" stop-color="#FCB8A8" stop-opacity="0"/>
</linearGradient>
<linearGradient id="paint2_linear_77_2608" x1="128.092" y1="493.992" x2="515.607" y2="227.673" gradientUnits="userSpaceOnUse">
<stop offset="0.140215" stop-color="#5343A5"/>
<stop offset="0.460927" stop-color="#5343A5" stop-opacity="0.05"/>
<stop offset="0.587747" stop-color="#5343A5" stop-opacity="0"/>
</linearGradient>
<linearGradient id="paint3_linear_77_2608" x1="668.451" y1="50.8978" x2="252.374" y2="432.236" gradientUnits="userSpaceOnUse">
<stop offset="0.300261" stop-color="#FCB8A8"/>
<stop offset="0.833024" stop-color="#FCB8A8" stop-opacity="0.12"/>
<stop offset="1" stop-color="#FCB8A8" stop-opacity="0"/>
</linearGradient>
<linearGradient id="paint4_linear_77_2608" x1="128.092" y1="493.993" x2="515.607" y2="227.673" gradientUnits="userSpaceOnUse">
<stop offset="0.140215" stop-color="#5343A5"/>
<stop offset="0.460927" stop-color="#5343A5" stop-opacity="0.05"/>
<stop offset="0.587747" stop-color="#5343A5" stop-opacity="0"/>
</linearGradient>
<linearGradient id="paint5_linear_77_2608" x1="668.45" y1="50.8979" x2="252.374" y2="432.236" gradientUnits="userSpaceOnUse">
<stop offset="0.300261" stop-color="#FCB8A8"/>
<stop offset="0.833024" stop-color="#FCB8A8" stop-opacity="0.12"/>
<stop offset="1" stop-color="#FCB8A8" stop-opacity="0"/>
</linearGradient>
</defs>
</svg>
