<svg width="122" height="28" viewBox="0 0 122 28" fill="none" xmlns="http://www.w3.org/2000/svg">
<g clip-path="url(#clip0_46_1947)">
<path d="M54.8166 7.58962L50.5908 13.6716C50.2854 14.1093 50.1774 14.6227 50.2719 14.928C50.5097 15.6873 50.861 16.5438 50.861 16.5438C50.861 16.5438 51.785 16.5762 52.5794 16.533C52.9009 16.5168 53.3413 16.2358 53.6466 15.7981L59.3531 7.58691H54.8166V7.58962Z" fill="#FAFAFF"/>
<path d="M44.0684 7.58984L48.2969 13.6719C48.6022 14.1096 48.7103 14.6229 48.6157 14.9283C48.3806 15.6875 48.0267 16.544 48.0267 16.544C48.0267 16.544 47.1026 16.5764 46.3083 16.5332C45.9867 16.517 45.5463 16.236 45.241 15.7983L39.5345 7.58984H44.0711H44.0684Z" fill="#FAFAFF"/>
<path d="M34.4819 4.47978C32.7689 1.46714 29.8265 0 25.4899 0C21.6451 0 18.9324 1.10509 17.1788 3.3801C15.4496 5.6227 14.3364 9.09737 14.3364 13.9986C14.3364 18.8999 15.4604 22.3746 17.1842 24.6172C18.9324 26.8922 21.6451 28 25.4899 28C29.3347 28 32.115 26.8463 33.874 24.4578C35.5276 22.2179 36.5786 18.8945 36.5786 13.9959C36.5786 11.0509 36.0923 7.30869 34.4819 4.47708M25.4872 3.45035C30.1669 3.45035 32.8418 5.24713 32.8418 13.9932C32.8418 22.7394 30.1723 24.4821 25.4872 24.4821C20.8021 24.4821 18.0623 22.7394 18.0623 13.9932C18.0623 5.24713 20.7616 3.45035 25.4872 3.45035ZM0 5.3417L2.49387 8.08144L2.78568 7.87069C3.08019 7.67075 4.9175 6.26846 5.93072 5.50111V27.5785H9.65396V0.510663H6.44408L0 5.3417Z" fill="#FAFAFF"/>
<path d="M55.238 27.5592L50.5989 20.872C50.2962 20.4342 50.1855 19.9209 50.28 19.6156C50.5178 18.8563 50.869 18.0025 50.869 18.0025C50.869 18.0025 51.7931 17.9701 52.5875 18.0106C52.909 18.0295 53.3494 18.3078 53.6547 18.7455L59.7773 27.5592H55.2353H55.238Z" fill="#FAFAFF"/>
<path d="M43.6171 27.597L48.2968 20.872C48.6021 20.4342 48.7102 19.9209 48.6156 19.6156C48.3779 18.8563 48.0266 18.0025 48.0266 18.0025C48.0266 18.0025 47.1026 17.9701 46.3082 18.0106C45.9867 18.0295 45.5462 18.3078 45.2409 18.7455L39.0833 27.5997H43.6198L43.6171 27.597Z" fill="#FAFAFF"/>
<path d="M72.6357 17.6946H75.7645V16.576H72.6357V14.7116H76.2968V13.5849H71.4009V20.8801H76.3265V19.7534H72.6357V17.6919V17.6946ZM83.1003 18.651L79.8661 13.5876H78.7015V20.8828H79.8877V15.7708L83.1408 20.8828H84.2972V13.5876H83.1003V18.651ZM89.701 13.4688C88.2852 13.4688 86.8505 14.3901 86.8505 16.1518V18.4943C86.8505 20.2317 88.2988 21.0125 89.7308 21.0125C91.1628 21.0125 92.5705 20.0858 92.5705 18.3187V16.0707C92.5705 14.5441 91.3924 13.4715 89.701 13.4715V13.4688ZM88.0853 16.122C88.0853 15.0683 88.8878 14.5955 89.6821 14.5955C90.6927 14.5955 91.3465 15.1575 91.3465 16.0329V18.3754C91.3465 19.4103 90.5359 19.875 89.7308 19.875C88.7473 19.875 88.0853 19.2887 88.0853 18.416V16.1247V16.122ZM98.5147 17.7648L96.5261 13.5984H95.1238V20.8855H96.3207V15.9896L98.0284 19.54H98.9659L100.663 15.995V20.8882H101.868V13.6011H100.455L98.5147 17.7675V17.7648ZM111.578 13.4688C109.901 13.4688 108.728 14.5603 108.728 16.122V18.4943C108.728 19.9993 109.884 21.0125 111.608 21.0125C113.202 21.0125 114.278 20.0831 114.278 18.7024V18.3214H113.092V18.5835C113.092 19.367 112.511 19.875 111.614 19.875C110.63 19.875 109.968 19.2887 109.968 18.416V16.095C109.968 15.0602 110.771 14.5982 111.562 14.5982C112.265 14.5982 113.089 14.9359 113.089 15.8897V16.222H114.267V15.7816C114.267 14.4225 113.162 13.4715 111.576 13.4715L111.578 13.4688ZM119.868 16.7786L118.579 16.4247C117.663 16.168 117.558 15.7654 117.558 15.4817C117.558 14.7981 118.212 14.5549 118.768 14.5549C119.482 14.5549 119.979 14.8359 120.252 15.3844L120.306 15.4979L121.381 15.0683L121.335 14.944C120.997 14.0064 120.071 13.4688 118.787 13.4688C117.347 13.4688 116.339 14.328 116.339 15.5627C116.339 16.5949 116.861 17.2028 118.025 17.5297L119.301 17.8729C119.973 18.0728 120.246 18.3646 120.246 18.8726C120.246 19.6237 119.471 19.8885 118.809 19.8885C117.966 19.8885 117.331 19.4859 117.077 18.7861L117.031 18.6564L115.907 19.0779L115.942 19.1995C116.274 20.3235 117.331 20.999 118.768 20.999C120.354 20.999 121.462 20.0885 121.462 18.7861C121.473 17.7324 120.933 17.0542 119.868 16.7759V16.7786ZM104.94 13.5957H106.175V20.8828H104.94V13.5957ZM65.5999 18.1458H67.4886V18.5889C67.4886 19.5346 66.6807 19.8696 65.9917 19.8696C65.0082 19.8696 64.3462 19.2833 64.3462 18.4106V16.0896C64.3462 15.0548 65.1487 14.5927 65.9431 14.5927C66.6807 14.5927 67.4696 14.917 67.4696 15.8248V16.1491H68.6585V15.7167C68.6585 14.1631 67.2994 13.4688 65.9539 13.4688C64.2814 13.4688 63.1115 14.5603 63.1115 16.122V18.4943C63.1115 19.9993 64.2706 21.0125 65.9917 21.0125C67.5966 21.0125 68.6747 20.0831 68.6747 18.7024V17.0083H65.5999V18.1485V18.1458Z" fill="#FAFAFF"/>
</g>
<defs>
<clipPath id="clip0_46_1947">
<rect width="122" height="28" fill="white"/>
</clipPath>
</defs>
</svg>
