<svg width="113" height="24" viewBox="0 0 113 24" fill="none" xmlns="http://www.w3.org/2000/svg">
<g clip-path="url(#clip0_46_1976)">
<path d="M112.824 10.8573V8.88132H110.371V5.80937L110.288 5.8348L107.983 6.54L107.938 6.5538V8.88143H104.3V7.58474C104.3 6.98096 104.435 6.51891 104.701 6.21077C104.965 5.90632 105.343 5.75155 105.825 5.75155C106.172 5.75155 106.53 5.83317 106.892 5.99415L106.982 6.03458V3.95357L106.939 3.93792C106.603 3.81684 106.145 3.75586 105.577 3.75586C104.861 3.75586 104.211 3.91161 103.643 4.2203C103.076 4.52942 102.63 4.97071 102.317 5.53177C102.005 6.09219 101.847 6.73944 101.847 7.45572V8.88132H100.138V10.8573H101.847V19.1819H104.3V10.8573H107.938V16.1475C107.938 18.3262 108.965 19.4303 110.992 19.4303C111.325 19.4303 111.676 19.3913 112.034 19.3148C112.398 19.2364 112.646 19.158 112.792 19.0743L112.824 19.0552V17.0609L112.725 17.1269C112.592 17.2156 112.426 17.2881 112.231 17.342C112.036 17.3969 111.873 17.4244 111.747 17.4244C111.272 17.4244 110.921 17.2964 110.703 17.044C110.482 16.7892 110.371 16.3437 110.371 15.7204V10.8573H112.824ZM94.6608 17.4247C93.7705 17.4247 93.0686 17.1295 92.5739 16.548C92.0762 15.9636 91.8241 15.1303 91.8241 14.0717C91.8241 12.9794 92.0762 12.1246 92.5741 11.5298C93.0691 10.939 93.7643 10.6391 94.6408 10.6391C95.4913 10.6391 96.1683 10.9255 96.6533 11.4908C97.1407 12.059 97.3881 12.907 97.3881 14.012C97.3881 15.1305 97.1555 15.9898 96.6968 16.5645C96.2413 17.1349 95.5563 17.4247 94.6608 17.4247ZM94.7698 8.63318C93.0713 8.63318 91.7222 9.13088 90.7603 10.1125C89.799 11.0942 89.3117 12.4527 89.3117 14.1507C89.3117 15.7635 89.7874 17.0607 90.7258 18.0058C91.6643 18.9512 92.9414 19.4301 94.5215 19.4301C96.1679 19.4301 97.4902 18.9254 98.4516 17.9302C99.413 16.9361 99.9001 15.5904 99.9001 13.9321C99.9001 12.2941 99.443 10.9872 98.5412 10.0485C97.6389 9.10925 96.3699 8.63318 94.7698 8.63318ZM85.3569 8.63318C84.2015 8.63318 83.2458 8.92871 82.5157 9.51141C81.7812 10.0976 81.4086 10.8664 81.4086 11.7966C81.4086 12.2802 81.489 12.7098 81.6473 13.0741C81.8065 13.4396 82.0529 13.7615 82.3803 14.0316C82.7052 14.2995 83.2067 14.5801 83.8712 14.8657C84.4299 15.0955 84.8465 15.29 85.1112 15.4433C85.3698 15.5935 85.5534 15.7444 85.6571 15.8915C85.7579 16.0354 85.809 16.2324 85.809 16.4754C85.809 17.1674 85.2907 17.5042 84.2243 17.5042C83.8288 17.5042 83.3776 17.4215 82.8834 17.2587C82.3927 17.0984 81.9296 16.8635 81.5102 16.5625L81.4084 16.4894V18.851L81.4457 18.8683C81.7928 19.0286 82.2304 19.1637 82.7461 19.27C83.2609 19.3764 83.7286 19.4305 84.1349 19.4305C85.3886 19.4305 86.3983 19.1336 87.135 18.5474C87.8764 17.9572 88.2521 17.1703 88.2521 16.2078C88.2521 15.5135 88.0498 14.9181 87.6512 14.4379C87.2552 13.9616 86.5679 13.5243 85.6094 13.1378C84.8457 12.8313 84.3565 12.5768 84.1547 12.3815C83.9601 12.1928 83.8613 11.926 83.8613 11.5881C83.8613 11.2885 83.9833 11.0485 84.2336 10.8542C84.4858 10.6589 84.837 10.5595 85.2774 10.5595C85.6861 10.5595 86.1043 10.6241 86.5201 10.7506C86.9356 10.8771 87.3006 11.0466 87.6053 11.2538L87.7055 11.3223V9.08218L87.667 9.06566C87.386 8.94512 87.0153 8.84198 86.5651 8.75828C86.117 8.67513 85.7105 8.63318 85.3569 8.63318ZM75.0141 17.4247C74.1241 17.4247 73.4219 17.1295 72.9274 16.548C72.4296 15.9636 72.1778 15.1305 72.1778 14.0717C72.1778 12.9794 72.4299 12.1246 72.9279 11.5298C73.4225 10.939 74.1175 10.6391 74.9945 10.6391C75.8446 10.6391 76.5217 10.9255 77.0068 11.4908C77.4943 12.059 77.7415 12.907 77.7415 14.012C77.7415 15.1305 77.5088 15.9898 77.0501 16.5645C76.5946 17.1349 75.91 17.4247 75.0141 17.4247ZM75.1235 8.63318C73.4245 8.63318 72.0753 9.13088 71.1139 10.1125C70.1527 11.0942 69.665 12.4527 69.665 14.1507C69.665 15.7641 70.1411 17.0607 71.0795 18.0058C72.0179 18.9512 73.295 19.4301 74.875 19.4301C76.5213 19.4301 77.8438 18.9254 78.8053 17.9302C79.7665 16.9361 80.2537 15.5904 80.2537 13.9321C80.2537 12.2941 79.7966 10.9872 78.8945 10.0485C77.9921 9.10925 76.7232 8.63318 75.1235 8.63318ZM65.9416 10.6652V8.88132H63.5187V19.1817H65.9416V13.9127C65.9416 13.0167 66.1448 12.2807 66.5456 11.7247C66.9414 11.1754 67.4688 10.897 68.1126 10.897C68.3309 10.897 68.5759 10.933 68.8412 11.0042C69.1038 11.0749 69.294 11.1518 69.4062 11.2326L69.508 11.3064V8.86371L69.4688 8.84687C69.2431 8.751 68.9239 8.70263 68.52 8.70263C67.9111 8.70263 67.3663 8.89828 66.8995 9.28348C66.4899 9.62206 66.1938 10.0863 65.9674 10.6652H65.9416ZM59.1796 8.63318C58.068 8.63318 57.0765 8.87154 56.2332 9.34141C55.3881 9.81237 54.7346 10.4847 54.2899 11.3397C53.8472 12.1926 53.6224 13.1889 53.6224 14.2999C53.6224 15.2732 53.8404 16.1663 54.2711 16.9534C54.7021 17.7419 55.312 18.3587 56.0842 18.7865C56.8552 19.2138 57.7464 19.4304 58.7331 19.4304C59.8846 19.4304 60.8677 19.2002 61.6559 18.7462L61.6878 18.7279V16.5081L61.5859 16.5825C61.2289 16.8425 60.8299 17.0502 60.4005 17.1997C59.9723 17.3492 59.5819 17.4247 59.2395 17.4247C58.2888 17.4247 57.5255 17.1272 56.9715 16.5407C56.4163 15.9535 56.1348 15.1288 56.1348 14.0911C56.1348 13.0469 56.4284 12.2011 57.007 11.577C57.5838 10.9547 58.3484 10.6391 59.2795 10.6391C60.0759 10.6391 60.8519 10.9087 61.5861 11.4413L61.6878 11.5151V9.1762L61.655 9.15772C61.3787 9.00306 61.0018 8.87534 60.534 8.7785C60.0682 8.68187 59.6125 8.63318 59.1796 8.63318ZM51.9537 8.88143H49.5307V19.1817H51.9537V8.88143ZM50.767 4.49344C50.3682 4.49344 50.0204 4.6292 49.7346 4.89821C49.4477 5.16798 49.3022 5.50764 49.3022 5.9085C49.3022 6.30305 49.4459 6.63651 49.7302 6.89911C50.0126 7.16095 50.3615 7.29366 50.7671 7.29366C51.1726 7.29366 51.5228 7.16095 51.8086 6.89955C52.0962 6.63651 52.242 6.30316 52.242 5.9085C52.242 5.52166 52.1001 5.18548 51.8204 4.90908C51.541 4.63322 51.1864 4.49344 50.767 4.49344ZM44.7216 8.12146V19.1817H47.1943V4.80876H43.7719L39.4219 15.4846L35.2004 4.80876H31.6387V19.1816H33.9624V8.12037H34.0422L38.4999 19.1817H40.2536L44.6418 8.12146H44.7216Z" fill="#FAFAFF"/>
<path d="M11.8631 11.4041H0.464844V0.00585938H11.8631V11.4041Z" fill="#FAFAFF"/>
<path d="M24.4481 11.4041H13.05V0.00585938H24.4481V11.4041Z" fill="#FAFAFF"/>
<path d="M11.8628 23.9939H0.464844V12.5957H11.8628V23.9939Z" fill="#FAFAFF"/>
<path d="M24.4481 23.9939H13.05V12.5957H24.4481V23.9939Z" fill="#FAFAFF"/>
</g>
<defs>
<clipPath id="clip0_46_1976">
<rect width="112.36" height="24" fill="white" transform="translate(0.464844)"/>
</clipPath>
</defs>
</svg>
