<svg width="136" height="24" viewBox="0 0 136 24" fill="none" xmlns="http://www.w3.org/2000/svg">
<path d="M3.24103 1.0542H7.81749V5.13645H11.1152V8.38878H7.81749V15.0953C7.81749 16.5084 8.26616 16.7776 9.79164 16.7776H11.1152V20.0972H8.19886C4.49731 20.0972 3.24103 19.3794 3.24103 15.9028V8.38878H0.885498V5.13645H3.24103V1.0542ZM26.6393 15.4318C25.2933 18.9757 22.1526 20.5009 19.1689 20.5009C14.3008 20.5009 10.9582 17.5626 10.9582 12.5607C10.9582 7.76075 14.5924 4.73271 18.9894 4.73271C23.9697 4.73271 27.0207 8.50093 26.7066 13.8168H15.602C15.7366 15.9477 17.3966 16.9121 19.0567 16.9121C20.8065 16.9121 21.9058 16.2841 22.4218 15.4093L26.6393 15.4318ZM15.6693 11.0355H22.1526C22.0628 9.1514 20.7617 8.20935 19.0119 8.20935C17.3518 8.20935 15.916 9.06168 15.6693 11.0355ZM42.455 10.6318H38.1926C37.7888 8.88224 36.6896 8.27663 35.3435 8.27663C33.7059 8.27663 32.0907 9.39813 32.0907 12.6056C32.0907 15.8579 33.7059 16.9346 35.3435 16.9346C37.0261 16.9346 38.0804 16.0598 38.4169 14.6243H42.6793C41.6474 19.0654 38.058 20.4785 35.0519 20.4785C30.1165 20.4785 27.402 17.3159 27.402 12.5383C27.402 7.76075 30.5203 4.71028 35.0519 4.71028C38.1477 4.71028 41.5576 6.12336 42.455 10.6318ZM47.7718 7.13271C48.4223 6.01121 50.06 4.82243 52.4155 4.82243C56.2517 4.82243 57.4631 7.08785 57.4631 11.1477V20.1421H52.8866V12.314C52.8866 10.1832 52.8193 8.43365 50.5984 8.43365C48.6242 8.43365 47.7942 9.71215 47.7942 12.5159V20.1869H43.2177V0H47.7942L47.7718 7.13271ZM68.0069 9.55514C67.6928 8.43365 66.5263 8.11962 65.0905 8.11962C63.4977 8.11962 62.7125 8.50093 62.7125 9.24112C62.7125 9.93644 63.2509 10.3402 64.5521 10.5869L67.3563 11.0804C70.9457 11.7308 72.6731 12.8075 72.6731 15.4318C72.6731 18.7963 69.5772 20.5009 65.427 20.5009C61.4338 20.5009 58.6072 18.8187 58.0912 15.2748H62.3536C62.7574 16.7103 63.924 17.1589 65.4943 17.1589C67.132 17.1589 68.2761 16.7103 68.2761 15.8131C68.2761 15.1626 67.6928 14.714 65.9206 14.4224L63.251 13.9738C60.357 13.5028 58.3829 12.0449 58.3829 9.39813C58.3829 6.41495 61.5236 4.77757 65.2251 4.77757C68.635 4.77757 71.7533 6.14579 72.3141 9.57757L68.0069 9.55514ZM75.0286 1.0542H79.6051V5.13645H82.9028V8.38878H79.6051V15.0953C79.6051 16.5084 80.0537 16.7776 81.5792 16.7776H82.8804V20.0972H79.9864C76.2849 20.0972 75.0286 19.3794 75.0286 15.9028V8.38878H72.6731V5.13645H75.0286V1.0542ZM93.3569 10.1832C93.3569 8.38878 92.5044 7.8056 90.8219 7.8056C89.3413 7.8056 88.3542 8.56822 88.1523 10.0037H83.8674C84.0918 7.17757 86.7614 4.68785 91.2032 4.68785C95.5329 4.68785 97.9782 6.43738 97.8885 10.9907L97.8211 14.243V15.8131C97.8211 17.4505 97.9333 19.2224 98.1577 20.1421H93.6485L93.5812 18.3252C92.4595 19.9178 90.6873 20.5009 88.5336 20.5009C85.6846 20.5009 83.3515 18.8411 83.3515 16.1047C83.3515 12.4262 87.5017 11.2374 93.312 10.7888L93.3569 10.1832ZM93.4915 13.4804C90.2835 13.7944 88.1523 14.1084 88.1523 15.7682C88.1523 16.7327 89.072 17.3832 90.261 17.3832C92.1006 17.3832 93.4915 16.5981 93.4915 13.8392V13.4804ZM108.387 9.55514C107.984 9.48785 107.535 9.44299 107.131 9.46542C104.91 9.46542 103.766 10.2729 103.766 12.6056V20.1196H99.1672V5.13645H103.587V7.98505C104.282 6.19065 105.538 5.13645 107.67 5.04673H108.006C108.141 5.04673 108.253 5.04673 108.387 5.06916V9.55514ZM118.527 9.55514C118.213 8.43365 117.047 8.11962 115.611 8.11962C114.018 8.11962 113.233 8.50093 113.233 9.24112C113.233 9.93644 113.771 10.3402 115.073 10.5869L117.854 11.0804C121.444 11.7308 123.171 12.8075 123.171 15.4318C123.171 18.7963 120.075 20.5009 115.925 20.5009C111.954 20.5009 109.105 18.8187 108.589 15.2748H112.852C113.255 16.7103 114.422 17.1589 115.992 17.1589C117.63 17.1589 118.774 16.7103 118.774 15.8131C118.774 15.1626 118.191 14.714 116.419 14.4224L113.749 13.9738C110.855 13.5028 108.903 12.0449 108.903 9.39813C108.903 6.41495 112.044 4.77757 115.746 4.77757C119.156 4.77757 122.274 6.14579 122.835 9.57757L118.527 9.55514Z" fill="#FAFAFF"/>
<path d="M123.082 23.9995V20.1416H135.465V23.9995H123.082Z" fill="#FAFAFF"/>
</svg>
