<svg width="149" height="22" viewBox="0 0 149 22" fill="none" xmlns="http://www.w3.org/2000/svg">
<path fill-rule="evenodd" clip-rule="evenodd" d="M0.464844 21.6087V0.668114H5.97202L13.8814 11.4386C14.0389 11.6527 14.2842 12.0976 14.6333 12.762C14.981 13.4245 15.3609 14.212 15.7809 15.1296C15.6685 14.2608 15.5848 13.4885 15.5318 12.8107C15.4789 12.1374 15.4536 11.5364 15.4536 11.0092V0.668114H20.9317V21.6087H15.4536L7.54422 10.7943C7.38402 10.5749 7.12661 10.1355 6.77783 9.47123C6.42978 8.809 6.05507 8.03086 5.64506 7.13232C5.75717 8.01114 5.84053 8.78823 5.89382 9.46638C5.94676 10.1393 5.97202 10.742 5.97202 11.268V21.6087H0.464844ZM29.7722 13.7823H35.4503L33.3169 6.87348C33.2526 6.66417 33.1626 6.32542 33.0481 5.85802C32.9346 5.39437 32.7845 4.79372 32.6039 4.05643C32.4821 4.57402 32.3568 5.06221 32.2378 5.53105C32.1188 5.99846 32.006 6.44792 31.8766 6.87348L29.7722 13.7823ZM21.7749 21.6087L29.0007 0.668114H36.1534L43.3891 21.6087H37.7111L36.6516 17.8592H28.5419L27.453 21.6087H21.7749ZM45.4617 14.6763C46.3111 15.6382 47.1508 16.3606 47.976 16.8343C48.8012 17.3128 49.6216 17.5519 50.4416 17.5519C51.2034 17.5519 51.8331 17.3471 52.3213 16.9367C52.8144 16.5267 53.0586 16.0091 53.0586 15.3794C53.0586 14.6812 52.8486 14.1442 52.4238 13.7681C51.9992 13.3924 51.0374 13.0017 49.5434 12.6014C47.4927 12.0495 46.0426 11.3271 45.1932 10.4435C44.3434 9.55462 43.9189 8.33911 43.9189 6.79601C43.9189 4.79442 44.5877 3.1589 45.9305 1.89428C47.2681 0.62971 49.0064 0 51.1398 0C52.2971 0 53.3904 0.156018 54.4257 0.463607C55.4609 0.77604 56.4373 1.24488 57.3649 1.87459L55.5778 5.98082C54.9284 5.42897 54.2645 5.00927 53.5811 4.7259C52.8974 4.44773 52.2238 4.30623 51.5598 4.30623C50.8713 4.30623 50.3146 4.4723 49.8852 4.79926C49.4555 5.12623 49.2406 5.55112 49.2406 6.06387C49.2406 6.59115 49.4309 7.01086 49.807 7.32364C50.1828 7.64092 50.9104 7.93882 51.9843 8.22668L52.2431 8.30004C54.572 8.92491 56.1003 9.61825 56.8328 10.3701C57.3307 10.8877 57.7067 11.5029 57.9655 12.2253C58.2243 12.9429 58.351 13.7439 58.351 14.6179C58.351 16.8392 57.6237 18.6262 56.1639 19.9739C54.7039 21.326 52.7607 22 50.3294 22C48.8697 22 47.5414 21.7509 46.3453 21.2578C45.1492 20.7596 43.9971 19.9836 42.8885 18.9241L45.4617 14.6763ZM61.294 14.6763C62.1434 15.6382 62.9831 16.3606 63.8083 16.8343C64.6335 17.3128 65.4539 17.5519 66.2739 17.5519C67.0357 17.5519 67.6655 17.3471 68.1537 16.9367C68.6467 16.5267 68.891 16.0091 68.891 15.3794C68.891 14.6812 68.681 14.1442 68.2561 13.7681C67.8316 13.3924 66.8697 13.0017 65.3757 12.6014C63.325 12.0495 61.8749 11.3271 61.0255 10.4435C60.1758 9.55462 59.7512 8.33911 59.7512 6.79601C59.7512 4.79442 60.42 3.1589 61.7628 1.89428C63.1004 0.62971 64.8387 0 66.9721 0C68.1295 0 69.2228 0.156018 70.258 0.463607C71.2932 0.77604 72.2696 1.24488 73.1972 1.87459L71.4102 5.98082C70.7607 5.42897 70.0968 5.00927 69.4134 4.7259C68.7298 4.44773 68.0561 4.30623 67.3921 4.30623C66.7036 4.30623 66.1469 4.4723 65.7175 4.79926C65.2878 5.12623 65.073 5.55112 65.073 6.06387C65.073 6.59115 65.2632 7.01086 65.6393 7.32364C66.0151 7.64092 66.7427 7.93882 67.8167 8.22668L68.0755 8.30004C70.4043 8.92491 71.9326 9.61825 72.6651 10.3701C73.163 10.8877 73.5391 11.5029 73.7978 12.2253C74.0566 12.9429 74.1833 13.7439 74.1833 14.6179C74.1833 16.8392 73.456 18.6262 71.9963 19.9739C70.5362 21.326 68.5931 22 66.1618 22C64.702 22 63.3738 21.7509 62.1777 21.2578C60.9816 20.7596 59.8294 19.9836 58.7208 18.9241L61.294 14.6763ZM91.3729 1.31337V7.55303C90.5921 6.6839 89.8108 6.04899 89.0344 5.64382C88.258 5.23869 87.4231 5.03349 86.5394 5.03349C84.8991 5.03349 83.5712 5.59503 82.5557 6.71331C81.5398 7.83605 81.0322 9.29579 81.0322 11.0974C81.0322 12.7772 81.5498 14.1684 82.5847 15.277C83.6199 16.3852 84.9382 16.9367 86.5394 16.9367C87.4231 16.9367 88.258 16.7319 89.0344 16.3264C89.8108 15.9212 90.5921 15.2818 91.3729 14.403V20.6572C90.4651 21.0918 89.5665 21.4239 88.6683 21.6436C87.7746 21.8633 86.8667 21.9706 85.9537 21.9706C84.8064 21.9706 83.7518 21.8339 82.785 21.5606C81.8183 21.2921 80.9246 20.8769 80.1143 20.3254C78.5518 19.2757 77.3606 17.9574 76.5405 16.3655C75.7202 14.7691 75.3102 12.9772 75.3102 10.9853C75.3102 9.38368 75.5687 7.92879 76.0911 6.61539C76.6087 5.30198 77.3948 4.11558 78.4446 3.04648C79.4358 2.02613 80.5537 1.26458 81.7986 0.756673C83.039 0.253959 84.4254 0 85.9537 0C86.8667 0 87.7746 0.107227 88.6683 0.326961C89.5665 0.546656 90.4651 0.878822 91.3729 1.31337ZM114.905 11.0147C114.905 12.5232 114.627 13.9342 114.075 15.2476C113.523 16.5658 112.717 17.7426 111.658 18.7822C110.589 19.8126 109.368 20.6036 107.996 21.1651C106.624 21.7215 105.199 22 103.719 22C102.22 22 100.79 21.7215 99.4228 21.1651C98.051 20.6036 96.8497 19.8126 95.8096 18.7822C94.7308 17.7426 93.9153 16.561 93.3541 15.2331C92.7974 13.9096 92.5193 12.5035 92.5193 11.0147C92.5193 9.51552 92.7974 8.10938 93.3541 6.78633C93.9153 5.46808 94.7308 4.28651 95.8096 3.24679C96.8497 2.2164 98.051 1.42548 99.4228 0.863941C100.79 0.307592 102.22 0.02907 103.719 0.02907C105.208 0.02907 106.639 0.307592 108.016 0.863941C109.398 1.42548 110.608 2.2164 111.658 3.24679C112.708 4.27682 113.508 5.45354 114.07 6.78148C114.627 8.10453 114.905 9.51552 114.905 11.0147ZM103.719 17.1665C105.301 17.1665 106.609 16.5852 107.645 15.4233C108.68 14.2563 109.197 12.7869 109.197 11.0147C109.197 9.26187 108.675 7.79694 107.625 6.62022C106.576 5.4487 105.272 4.86258 103.719 4.86258C102.137 4.86258 100.829 5.4487 99.7938 6.61539C98.7589 7.78242 98.2413 9.25188 98.2413 11.0147C98.2413 12.8063 98.7489 14.2809 99.7695 15.433C100.79 16.5904 102.108 17.1665 103.719 17.1665ZM141.312 21.4433H135.976L134.745 12.3914C134.662 11.7516 134.584 11.0389 134.511 10.2577C134.438 9.47677 134.374 8.62216 134.316 7.6994C134.184 8.58306 133.92 9.69127 133.53 11.0147C133.447 11.2929 133.383 11.498 133.344 11.6299L130.498 21.4433H126.694L123.848 11.6299C123.809 11.498 123.75 11.2929 123.677 11.0147C123.277 9.69127 123.013 8.58791 122.891 7.71393C122.832 8.50486 122.764 9.2861 122.691 10.0625C122.613 10.8438 122.52 11.615 122.417 12.3914L121.187 21.4433H115.88L119.112 0.502718H124.761L127.925 11.3026C127.944 11.3759 127.983 11.5029 128.037 11.6738C128.335 12.6353 128.52 13.4605 128.598 14.1491C128.633 13.7778 128.706 13.3629 128.808 12.909C128.916 12.4596 129.058 11.9129 129.238 11.2732L132.431 0.502718H138.095L141.312 21.4433ZM143.785 2.64754V4.04984H144.415C144.77 4.04984 145.034 3.99482 145.199 3.88514C145.363 3.77512 145.444 3.60317 145.444 3.36894C145.444 3.1198 145.359 2.93679 145.187 2.82328C145.015 2.70601 144.741 2.64754 144.371 2.64754H143.785ZM142.829 2.0469H144.543C145.162 2.0469 145.631 2.14928 145.949 2.35448C146.268 2.55585 146.425 2.85615 146.425 3.25543C146.425 3.581 146.341 3.84848 146.169 4.06092C145.997 4.27682 145.751 4.41591 145.433 4.48579L146.425 6.49602H145.359L144.477 4.6394H143.785V6.49602H142.829V2.0469ZM144.452 0.973965C143.99 0.973965 143.562 1.05457 143.166 1.21582C142.771 1.38049 142.415 1.61855 142.097 1.93723C141.767 2.27039 141.515 2.64754 141.339 3.06135C141.163 3.47133 141.075 3.90347 141.075 4.34635C141.075 4.79337 141.159 5.21792 141.328 5.62445C141.493 6.02718 141.738 6.38979 142.053 6.71191C142.375 7.03783 142.738 7.28695 143.144 7.45894C143.551 7.63469 143.968 7.72258 144.396 7.72258C144.858 7.72258 145.297 7.63848 145.715 7.46998C146.129 7.30532 146.502 7.05616 146.835 6.73404C147.15 6.42645 147.396 6.07112 147.568 5.67219C147.74 5.26912 147.824 4.84805 147.824 4.40138C147.824 3.92909 147.743 3.48586 147.582 3.07969C147.417 2.66932 147.179 2.30325 146.861 1.98113C146.531 1.65141 146.161 1.40231 145.751 1.23036C145.345 1.05837 144.909 0.973965 144.452 0.973965ZM144.444 0.377118C144.993 0.377118 145.506 0.476093 145.993 0.677457C146.476 0.878822 146.908 1.17187 147.289 1.56351C147.655 1.93338 147.937 2.35828 148.131 2.83057C148.326 3.30666 148.421 3.80833 148.421 4.3429C148.421 4.892 148.322 5.40476 148.124 5.88429C147.923 6.36418 147.637 6.78528 147.256 7.15514C146.868 7.53226 146.436 7.81772 145.953 8.01909C145.469 8.2208 144.968 8.31942 144.444 8.31942C143.917 8.31942 143.411 8.217 142.928 8.01184C142.445 7.80698 142.013 7.51013 141.632 7.12228C141.258 6.74478 140.969 6.31644 140.775 5.84035C140.577 5.3646 140.478 4.86638 140.478 4.3429C140.478 3.81561 140.581 3.31011 140.786 2.81949C140.991 2.32886 141.288 1.88944 141.676 1.50504C142.046 1.13138 142.467 0.849405 142.932 0.662922C143.4 0.472254 143.906 0.377118 144.444 0.377118Z" fill="#FAFAFF"/>
</svg>
