<svg width="48" height="28" viewBox="0 0 48 28" fill="none" xmlns="http://www.w3.org/2000/svg">
<g clip-path="url(#clip0_46_1978)">
<path d="M13.6536 10.169C13.6536 10.7451 13.7159 11.2123 13.8249 11.5548C13.9495 11.8974 14.1052 12.2711 14.3232 12.676C14.4011 12.8005 14.4322 12.9251 14.4322 13.0341C14.4322 13.1898 14.3388 13.3455 14.1363 13.5012L13.1554 14.1552C13.0152 14.2487 12.8751 14.2954 12.7505 14.2954C12.5948 14.2954 12.4391 14.2175 12.2834 14.0774C12.0654 13.8438 11.8785 13.5947 11.7228 13.3455C11.5671 13.0808 11.4114 12.785 11.2401 12.4268C10.0255 13.8594 8.49956 14.5757 6.66215 14.5757C5.35417 14.5757 4.31089 14.202 3.5479 13.4545C2.78491 12.7071 2.39563 11.7106 2.39563 10.4649C2.39563 9.1413 2.86277 8.06688 3.81261 7.25718C4.76246 6.44747 6.02373 6.04262 7.62757 6.04262C8.15699 6.04262 8.70198 6.08934 9.27812 6.16719C9.85426 6.24505 10.446 6.36962 11.0688 6.50976V5.37306C11.0688 4.18964 10.8197 3.36437 10.337 2.88166C9.83869 2.39895 8.99784 2.16538 7.79885 2.16538C7.25386 2.16538 6.69329 2.22767 6.11716 2.36781C5.54102 2.50795 4.98046 2.67923 4.43546 2.89723C4.18632 3.00623 3.99947 3.06851 3.89047 3.09966C3.78147 3.1308 3.70361 3.14637 3.64133 3.14637C3.42333 3.14637 3.31433 2.99066 3.31433 2.66366V1.90067C3.31433 1.65153 3.34548 1.46467 3.42333 1.35568C3.50119 1.24668 3.64133 1.13768 3.85933 1.02868C4.40432 0.748397 5.05831 0.514828 5.8213 0.327973C6.5843 0.125547 7.394 0.0321191 8.25042 0.0321191C10.1034 0.0321191 11.4581 0.452543 12.3301 1.29339C13.1865 2.13424 13.6225 3.41108 13.6225 5.12392V10.169H13.6536ZM7.33171 12.5358C7.84557 12.5358 8.37499 12.4424 8.93555 12.2555C9.49612 12.0687 9.9944 11.7261 10.4148 11.259C10.664 10.9631 10.8508 10.6361 10.9442 10.2624C11.0377 9.88872 11.1 9.43715 11.1 8.90773V8.25374C10.6484 8.14474 10.1657 8.05131 9.6674 7.98903C9.16912 7.92674 8.68641 7.8956 8.2037 7.8956C7.16043 7.8956 6.39744 8.09803 5.88359 8.51845C5.36974 8.93887 5.1206 9.53058 5.1206 10.3091C5.1206 11.041 5.30745 11.586 5.69673 11.9597C6.07044 12.349 6.61544 12.5358 7.33171 12.5358ZM19.8354 14.2175C19.5551 14.2175 19.3683 14.1708 19.2437 14.0618C19.1191 13.9684 19.0101 13.7504 18.9167 13.4545L15.2575 1.41796C15.1641 1.10654 15.1173 0.904109 15.1173 0.79511C15.1173 0.54597 15.2419 0.405829 15.491 0.405829H17.017C17.3129 0.405829 17.5153 0.452543 17.6243 0.561542C17.7489 0.654969 17.8423 0.872967 17.9357 1.16882L20.5517 11.477L22.9808 1.16882C23.0587 0.857395 23.1521 0.654969 23.2767 0.561542C23.4012 0.468114 23.6192 0.405829 23.8995 0.405829H25.1452C25.4411 0.405829 25.6435 0.452543 25.7681 0.561542C25.8926 0.654969 26.0016 0.872967 26.0639 1.16882L28.5242 11.6016L31.218 1.16882C31.3114 0.857395 31.4204 0.654969 31.5294 0.561542C31.654 0.468114 31.8564 0.405829 32.1367 0.405829H33.5848C33.834 0.405829 33.9741 0.530399 33.9741 0.79511C33.9741 0.872967 33.9585 0.950823 33.943 1.04425C33.9274 1.13768 33.8963 1.26225 33.834 1.43353L30.0813 13.4701C29.9879 13.7815 29.8789 13.984 29.7543 14.0774C29.6297 14.1708 29.4273 14.2331 29.1626 14.2331H27.8235C27.5276 14.2331 27.3252 14.1864 27.2006 14.0774C27.0761 13.9684 26.9671 13.766 26.9048 13.4545L24.4912 3.41108L22.0933 13.439C22.0154 13.7504 21.922 13.9528 21.7974 14.0618C21.6728 14.1708 21.4548 14.2175 21.1746 14.2175H19.8354ZM39.8445 14.638C39.0348 14.638 38.2251 14.5445 37.4465 14.3577C36.6679 14.1708 36.0607 13.9684 35.6558 13.7348C35.4067 13.5947 35.2354 13.439 35.1731 13.2988C35.1108 13.1587 35.0797 13.003 35.0797 12.8628V12.0687C35.0797 11.7417 35.2042 11.586 35.4378 11.586C35.5312 11.586 35.6247 11.6016 35.7181 11.6327C35.8115 11.6638 35.9517 11.7261 36.1074 11.7884C36.6368 12.022 37.2129 12.2088 37.8202 12.3334C38.4431 12.458 39.0503 12.5203 39.6732 12.5203C40.6542 12.5203 41.4172 12.349 41.9466 12.0064C42.476 11.6638 42.7563 11.1656 42.7563 10.5271C42.7563 10.0911 42.6162 9.73301 42.3359 9.43715C42.0556 9.1413 41.5262 8.87659 40.7632 8.62745L38.5053 7.92674C37.3686 7.5686 36.5278 7.03918 36.014 6.33848C35.5001 5.65334 35.2354 4.89035 35.2354 4.08064C35.2354 3.42665 35.3755 2.85052 35.6558 2.35224C35.9361 1.85396 36.3098 1.41796 36.7769 1.07539C37.2441 0.717254 37.7735 0.452543 38.3964 0.265688C39.0192 0.0788328 39.6732 0.000976562 40.3583 0.000976562C40.7009 0.000976562 41.059 0.0165478 41.4016 0.0632616C41.7597 0.109975 42.0867 0.17226 42.4137 0.234545C42.7252 0.312402 43.021 0.390258 43.3013 0.483685C43.5816 0.577113 43.7996 0.67054 43.9553 0.763968C44.1733 0.888538 44.329 1.01311 44.4224 1.15325C44.5158 1.27782 44.5626 1.4491 44.5626 1.6671V2.39895C44.5626 2.72595 44.438 2.89723 44.2044 2.89723C44.0799 2.89723 43.8774 2.83494 43.6127 2.71037C42.7252 2.30552 41.7286 2.1031 40.623 2.1031C39.7355 2.1031 39.0348 2.24324 38.5521 2.53909C38.0694 2.83494 37.8202 3.28651 37.8202 3.92493C37.8202 4.36093 37.9759 4.73464 38.2874 5.03049C38.5988 5.32634 39.1749 5.6222 40.0002 5.88691L42.2113 6.58762C43.3324 6.94575 44.1421 7.44403 44.6248 8.08246C45.1076 8.72088 45.3411 9.45273 45.3411 10.2624C45.3411 10.932 45.201 11.5393 44.9363 12.0687C44.656 12.5981 44.2823 13.0653 43.7996 13.439C43.3169 13.8282 42.7407 14.1085 42.0712 14.311C41.3705 14.529 40.6386 14.638 39.8445 14.638Z" fill="#FAFAFF"/>
<path d="M42.7875 22.2057C37.6645 25.9895 30.2215 27.9982 23.8217 27.9982C14.8527 27.9982 6.77118 24.6815 0.667251 19.1693C0.184542 18.7333 0.620537 18.1416 1.19667 18.4841C7.79888 22.3147 15.9426 24.6348 24.3667 24.6348C30.0502 24.6348 36.2943 23.4514 42.0401 21.0223C42.8965 20.633 43.6283 21.5828 42.7875 22.2057Z" fill="#FAFAFF"/>
<path d="M44.9207 19.7774C44.2667 18.9365 40.5919 19.3725 38.9258 19.575C38.4275 19.6372 38.3497 19.2012 38.8012 18.8742C41.7286 16.8188 46.5401 17.4105 47.1007 18.0957C47.6613 18.7964 46.945 23.6079 44.2045 25.9124C43.784 26.2706 43.3792 26.0837 43.566 25.6166C44.1889 24.075 45.5747 20.6027 44.9207 19.7774Z" fill="#FAFAFF"/>
</g>
<defs>
<clipPath id="clip0_46_1978">
<rect width="46.8227" height="28" fill="white" transform="translate(0.464844)"/>
</clipPath>
</defs>
</svg>
